<?xml version="1.0" encoding="UTF-8"?>
<svg xmlns="http://www.w3.org/2000/svg" version="1.1" viewBox="0 0 16 16">
  <defs>
    <style>
      .cls-1 {
        fill: #ff4554;
      }
    </style>
  </defs>
  <!-- Generator: Adobe Illustrator 28.6.0, SVG Export Plug-In . SVG Version: 1.2.0 Build 709)  -->
  <g>
    <g id="Ebene_1">
      <g>
        <polygon class="cls-1" points="11.1 8.8 8.7 11.8 10.7 14.3 12 14.3 13.8 14.3 15.5 14.3 11.1 8.8"/>
        <polygon class="cls-1" points="15.4 1.7 13.8 1.7 13.8 1.7 13.8 1.7 13.8 1.7 12 1.7 12 1.7 10.7 1.7 8.7 4.2 11.1 7.2 11.1 7.2 15.5 1.7 15.4 1.7"/>
        <polygon class="cls-1" points="7.8 4.8 5.3 1.7 .5 1.7 .5 1.7 3 4.8 5.6 8 3 11.2 .5 14.3 5.2 14.3 5.3 14.3 7.8 11.2 10.4 8 7.8 4.8"/>
      </g>
    </g>
  </g>
</svg>